<?xml version="1.0" encoding="UTF-8"?>
    <svg xmlns="http://www.w3.org/2000/svg" viewBox="0 0 261.54 261.54">
        <defs>
            <style>.g{fill:#ffffff30;}</style>
        </defs>
        <g id="a"/>
        <g id="b">
            <g id="c">
                <g id="d">
                    <g id="e">
                        <g id="f">
                            <g>
                                <path class="g" d="M252.87,179.43L149.28,0h0c-52.36,30.23-70.3,97.17-40.07,149.53l48.86,84.63c15.11,26.18,48.59,35.15,74.77,20.04,26.18-15.11,35.15-48.59,20.03-74.77h0Z"/>
                                <circle class="g" cx="54.61" cy="206.5" r="54.61"/>
                                <!-- <g>
                                    <path class="g" d="M313.21,70.24l-39.07,81.07c-1.5,3.11-1.3,6.72,.54,9.65,1.84,2.93,5,4.68,8.46,4.68,3.94,0,7.53-2.33,9.13-5.93l4.83-11.18h32.03l5.08,11.2c1.61,3.59,5.19,5.92,9.12,5.92,3.46,0,6.62-1.75,8.46-4.68,1.84-2.93,2.04-6.54,.54-9.65l-39.11-81.06h0Zm8.44,61.17h-17.11l8.67-19.33,8.44,19.33Z"/>
                                    <path class="g" d="M429.22,70.29c-5.78,0-10.49,4.7-10.49,10.49v38.64l-54.3-49.13v84.85c0,5.78,4.7,10.49,10.49,10.49s10.49-4.7,10.49-10.49v-38.64l54.3,49.13V80.78c0-5.78-4.7-10.49-10.49-10.49h0Z"/>
                                    <path class="g" d="M507.65,115.61c-.89-.72-1.81-1.37-2.67-1.9-.13-.09-3.22-2.28-8.8-4.85-.98-.45-2.02-.91-3.15-1.37-.87-.35-1.75-.7-2.63-1.05l-.46-.18c-7.18-2.83-12.16-5.26-10.99-10.72,.37-1.72,1.24-2.93,2.67-3.7,3.19-1.73,8.85-.91,13.05,.68,1.71,.65,3.76,1.77,6.07,3.33,.44,.32,.89,.65,1.34,1.01,.36,.28,.75,.54,1.23,.82,.35,.2,.71,.38,1.08,.53,4.37,1.82,9.42,.27,12.03-3.69,2.65-4.03,1.99-9.35-1.55-12.66l-.24-.21c-1.61-1.6-3.46-3.09-5.51-4.41-4.83-3.11-10.69-5.29-16.94-6.28-2.67-.43-5.36-.64-8.01-.64-15.75,0-27.18,11.43-27.18,27.18,0,7.5,3.15,14.74,8.64,19.87,1.35,1.26,2.83,2.38,4.38,3.33l.12,.07c.53,.31,3.35,1.97,7.23,3.79,2.13,1,4.23,1.89,6.25,2.64,.71,.26,1.43,.52,2.16,.76,5.07,1.69,8.46,4.11,9.81,6.99,.85,1.83,.87,3.85,.02,6-.62,1.59-2.38,2.92-4.82,3.63-4.76,1.39-12.92,.62-21.54-5.67-.76-.56-1.45-1.12-2.14-1.7-2.09-1.79-4.85-2.63-7.58-2.3-2.75,.33-5.24,1.81-6.85,4.05-2.83,3.95-2.4,9.3,1.03,12.74,1.38,1.38,2.88,2.71,4.42,3.92,1.46,1.18,3.04,2.28,4.7,3.26,7.24,4.4,13.05,5.32,13.3,5.35h.05c3.86,.94,7.7,1.42,11.41,1.42,19.36,0,30.47-10.29,30.47-28.24,0-8.55-3.79-16.48-10.4-21.78h0Z"/>
                                </g> -->
                            </g>
                        </g>
                    </g>
                </g>
            </g>
        </g>
    </svg>